<?xml version="1.0" encoding="UTF-8" standalone="no"?>
<!DOCTYPE svg PUBLIC "-//W3C//DTD SVG 1.1//EN" "http://www.w3.org/Graphics/SVG/1.1/DTD/svg11.dtd">
<svg xmlns="http://www.w3.org/2000/svg" version="1.1" viewBox="0.00 0.00 1280.00 1280.00">
<g stroke-width="2.00" fill="none" stroke-linecap="butt">
<path stroke="#808080" vector-effect="non-scaling-stroke" d="
  M 1054.30 658.88
  Q 1055.99 658.14 1059.33 657.25
  Q 1090.97 648.74 1117.07 627.82
  C 1124.61 621.78 1132.54 613.66 1138.55 606.81
  C 1147.36 596.74 1154.77 584.64 1161.44 572.24
  C 1176.80 543.66 1183.76 510.50 1184.31 477.02
  Q 1184.84 444.61 1178.77 415.30
  C 1176.56 404.64 1173.76 396.51 1169.53 383.98
  Q 1167.80 378.85 1164.51 371.98
  Q 1154.35 350.71 1140.50 332.48
  Q 1136.08 326.68 1127.93 319.25
  Q 1118.31 310.49 1112.82 306.16
  Q 1101.55 297.28 1088.90 291.58
  A 2.14 2.13 -77.2 0 1 1087.65 289.59
  Q 1087.99 273.83 1084.62 260.38
  Q 1082.66 252.56 1078.78 241.26
  Q 1075.71 232.34 1070.52 223.04
  Q 1059.39 203.10 1047.34 189.95
  Q 1031.12 172.25 1016.11 161.98
  Q 983.63 139.76 940.97 133.29
  Q 922.03 130.41 902.00 132.09
  Q 896.31 132.57 888.30 133.35
  A 1.28 1.28 0.0 0 1 887.05 132.68
  Q 884.09 127.18 879.51 121.75
  C 853.26 90.65 815.23 71.46 775.32 64.90
  Q 755.16 61.58 737.76 62.92
  Q 725.28 63.88 711.45 66.62
  C 686.06 71.66 663.29 84.66 644.80 102.90
  A 0.86 0.86 0.0 0 1 643.58 102.90
  C 626.86 86.38 607.65 74.48 584.74 68.25
  Q 549.26 58.60 512.72 65.45
  C 486.67 70.33 460.90 80.52 439.60 96.48
  Q 436.59 98.74 435.00 100.18
  C 430.88 103.91 427.36 106.47 424.06 110.08
  Q 421.59 112.79 415.65 118.60
  A 3.38 3.37 27.1 0 1 412.79 119.52
  Q 383.20 115.10 354.52 121.56
  Q 331.25 126.80 316.39 133.42
  Q 269.82 154.18 241.07 198.32
  Q 236.15 205.88 231.60 215.99
  Q 226.25 227.87 224.09 234.57
  Q 220.49 245.78 218.98 258.65
  A 2.10 2.08 -10.4 0 1 217.86 260.26
  C 215.85 261.28 213.32 262.54 211.21 263.37
  Q 177.24 276.71 153.70 303.22
  C 134.13 325.26 121.93 350.94 118.24 380.28
  Q 115.41 402.89 121.80 423.93
  Q 124.14 431.66 126.90 438.51
  A 0.90 0.90 0.0 0 1 126.82 439.33
  Q 116.35 455.42 112.76 462.76
  Q 106.13 476.31 101.54 495.28
  Q 97.90 510.36 98.25 529.48
  Q 98.71 555.44 104.00 575.27
  Q 107.83 589.60 117.39 609.53
  C 121.53 618.15 128.31 626.83 133.93 634.09
  C 142.12 644.67 152.51 653.83 163.01 662.42
  A 4.59 4.57 17.1 0 1 164.66 665.52
  C 167.64 697.80 183.33 726.71 207.18 748.82
  Q 212.44 753.70 221.38 760.77
  C 223.96 762.80 226.34 765.64 228.42 767.24
  A 2.67 2.65 -80.7 0 1 229.34 768.53
  Q 230.57 772.21 230.84 774.48
  Q 233.94 799.63 232.19 826.98
  Q 230.09 859.70 222.87 893.33
  Q 215.96 925.52 207.60 952.37
  C 198.84 980.48 191.64 1002.97 185.72 1028.73
  Q 182.50 1042.77 180.88 1058.31
  Q 177.63 1089.54 186.02 1119.39
  C 188.09 1126.73 192.26 1135.88 195.02 1141.72
  C 198.98 1150.06 203.99 1157.75 210.21 1164.80
  Q 235.90 1193.94 271.81 1206.17
  C 319.31 1222.36 371.15 1221.57 419.23 1208.41
  Q 442.55 1202.02 460.69 1194.65
  Q 483.18 1185.51 486.80 1184.10
  Q 500.56 1178.70 521.45 1172.46
  Q 546.31 1165.03 570.03 1163.56
  C 594.86 1162.02 619.62 1163.34 644.50 1168.79
  Q 670.26 1174.44 681.80 1177.97
  Q 706.44 1185.51 748.97 1200.59
  Q 763.15 1205.62 782.03 1210.53
  Q 828.82 1222.71 877.25 1221.63
  Q 904.86 1221.01 929.44 1215.88
  Q 939.52 1213.78 961.50 1206.86
  C 971.56 1203.70 979.39 1200.09 987.54 1196.29
  Q 992.64 1193.90 996.82 1192.91
  A 5.11 5.08 50.0 0 1 1000.03 1193.20
  Q 1005.90 1195.74 1015.59 1200.12
  Q 1031.09 1207.13 1049.03 1209.20
  C 1073.86 1212.07 1101.11 1210.01 1124.20 1202.41
  Q 1140.33 1197.11 1154.34 1187.49
  C 1163.81 1180.99 1170.21 1173.73 1175.86 1164.35
  C 1184.26 1150.42 1185.05 1130.45 1176.14 1116.79
  C 1168.78 1105.51 1155.72 1098.31 1142.45 1097.35
  Q 1131.85 1096.58 1120.31 1099.34
  C 1111.81 1101.38 1102.46 1104.74 1094.01 1105.89
  Q 1083.18 1107.37 1071.87 1105.90
  C 1057.28 1104.01 1042.72 1096.52 1029.02 1093.96
  Q 1024.82 1093.18 1014.35 1092.76
  C 1004.61 1092.37 992.67 1093.36 982.75 1092.56
  Q 969.53 1091.49 958.22 1087.57
  C 950.53 1084.90 943.40 1081.87 938.17 1076.22
  Q 936.87 1074.81 936.35 1073.59
  A 1.03 1.02 -8.9 0 1 937.39 1072.17
  Q 953.26 1073.65 965.21 1074.45
  C 990.89 1076.15 1016.06 1071.83 1040.01 1079.26
  Q 1051.79 1082.91 1064.68 1088.76
  Q 1073.18 1092.63 1081.98 1092.98
  C 1085.14 1093.10 1086.65 1092.36 1088.84 1090.27
  C 1092.69 1086.60 1088.36 1079.04 1085.32 1076.18
  Q 1081.47 1072.56 1080.85 1072.14
  Q 1065.83 1062.10 1049.41 1057.34
  Q 1028.00 1051.12 1005.49 1049.52
  Q 975.28 1047.37 968.01 1046.77
  Q 939.54 1044.40 910.52 1036.48
  Q 894.47 1032.11 874.25 1023.41
  Q 856.26 1015.67 839.51 1006.51
  Q 809.80 990.25 785.73 974.20
  Q 771.98 965.03 746.89 948.24
  Q 714.25 926.41 683.57 901.67
  Q 667.82 888.97 653.76 874.84
  C 644.58 865.62 637.91 856.34 632.92 845.41
  C 628.13 834.93 627.51 818.35 634.28 808.30
  C 635.88 805.93 638.07 801.90 640.82 799.18
  Q 658.24 781.93 682.96 781.78
  Q 696.75 781.69 711.01 786.47
  Q 727.62 792.03 738.29 796.97
  C 748.85 801.86 760.85 806.39 772.32 811.56
  Q 778.99 814.57 784.09 816.40
  Q 806.01 824.26 821.34 828.59
  Q 855.43 838.23 891.53 837.02
  C 912.96 836.31 934.86 831.05 954.74 823.02
  Q 988.77 809.26 1014.43 783.46
  C 1019.12 778.75 1024.74 771.27 1027.57 767.60
  Q 1050.02 738.47 1055.24 701.75
  Q 1057.59 685.26 1056.17 670.89
  C 1055.81 667.24 1054.21 662.22 1053.87 659.64
  A 0.73 0.73 0.0 0 1 1054.30 658.88"
/>
<path stroke="#808080" vector-effect="non-scaling-stroke" d="
  M 287.84 797.79
  C 287.94 799.34 288.37 801.49 288.42 802.76
  Q 288.83 815.39 289.26 836.75
  Q 289.60 853.20 294.87 868.63
  Q 296.74 874.11 300.66 881.33
  Q 322.16 921.04 363.90 933.59
  C 390.07 941.46 421.28 938.19 445.47 925.49
  Q 456.27 919.82 464.20 914.22
  Q 481.73 901.86 496.00 885.01
  Q 505.65 873.63 509.75 867.48
  Q 521.54 849.80 534.20 824.18
  Q 542.76 806.87 556.37 789.12
  Q 569.91 771.45 585.14 759.31
  Q 608.61 740.60 636.66 732.76
  Q 650.27 728.95 662.49 728.15
  C 689.87 726.37 716.74 732.33 742.93 742.06
  Q 760.80 748.69 763.06 749.69
  Q 786.59 760.05 812.40 769.87
  C 829.91 776.53 845.59 780.68 862.75 783.00
  Q 894.83 787.34 925.55 778.05
  C 935.66 774.99 949.13 768.60 959.11 761.19
  Q 967.52 754.94 971.36 751.38
  C 989.31 734.73 1002.15 711.54 1003.36 686.78
  Q 1003.83 677.27 1000.75 667.47
  Q 999.01 661.94 993.48 660.74
  C 986.80 659.28 975.82 658.44 966.75 656.55
  C 957.70 654.66 949.48 651.11 944.85 643.14
  C 938.60 632.41 940.91 620.43 951.10 613.00
  Q 960.41 606.21 973.26 607.48
  Q 981.77 608.32 989.95 609.12
  C 1000.33 610.14 1009.46 610.34 1018.26 610.07
  C 1044.38 609.29 1069.98 599.86 1089.17 582.42
  Q 1108.07 565.24 1118.32 541.84
  Q 1124.51 527.72 1127.03 515.55
  Q 1133.54 484.17 1130.97 452.07
  C 1129.36 431.93 1126.05 413.89 1118.69 396.06
  Q 1108.77 372.02 1088.70 353.81
  Q 1085.28 350.71 1081.09 347.86
  A 0.42 0.42 0.0 0 0 1080.46 348.08
  Q 1073.02 370.25 1058.38 389.36
  C 1052.38 397.19 1041.39 404.48 1031.31 401.24
  C 1015.90 396.27 1007.91 380.57 1015.96 365.64
  Q 1019.59 358.92 1023.30 352.09
  Q 1036.43 327.88 1036.75 301.35
  C 1037.20 262.84 1017.80 224.82 984.74 203.80
  Q 977.55 199.23 975.04 197.98
  Q 968.02 194.49 955.25 190.06
  C 939.67 184.66 924.76 183.34 908.80 184.54
  A 0.47 0.46 -8.9 0 0 908.38 185.11
  Q 919.49 229.15 892.40 264.37
  Q 885.76 273.01 878.18 279.59
  C 869.38 287.22 855.95 290.85 846.24 282.38
  C 838.63 275.76 836.02 263.48 842.02 254.76
  C 852.02 240.22 860.99 229.35 860.34 211.70
  C 859.32 184.22 846.36 160.16 826.17 142.31
  C 810.10 128.10 787.25 119.07 766.28 115.54
  C 738.86 110.92 708.55 117.37 687.90 136.64
  Q 671.75 151.69 670.17 173.51
  Q 669.91 177.04 669.98 183.00
  Q 670.18 200.88 669.91 241.50
  C 669.75 266.75 670.26 291.07 669.93 318.83
  C 669.69 338.63 670.46 362.82 669.65 384.56
  C 669.13 398.46 664.79 411.72 672.99 424.26
  C 677.98 431.87 688.78 432.22 696.19 428.71
  C 710.63 421.87 721.86 407.78 730.12 393.90
  Q 734.02 387.35 736.50 379.72
  C 740.09 368.67 742.30 358.46 742.61 347.01
  Q 742.73 342.55 742.42 283.02
  Q 742.35 270.61 741.51 266.47
  Q 738.74 252.87 729.92 242.59
  Q 723.07 234.61 720.61 231.87
  C 708.51 218.42 716.68 201.03 732.44 196.45
  C 739.54 194.39 747.81 197.21 753.95 201.03
  Q 759.61 204.55 766.23 211.54
  Q 787.81 234.29 793.16 263.61
  C 794.20 269.35 794.87 276.60 794.84 281.52
  Q 794.69 310.94 794.87 333.27
  C 795.03 353.35 793.99 368.88 789.08 384.62
  C 781.48 408.97 768.43 434.16 749.58 451.75
  Q 742.05 458.77 739.96 460.43
  C 714.89 480.28 680.12 491.09 650.89 472.63
  C 628.73 458.63 617.56 435.84 617.73 409.51
  Q 617.89 383.35 617.80 320.76
  Q 617.68 243.73 618.08 177.50
  C 618.26 147.63 597.69 124.54 569.51 117.48
  Q 547.26 111.91 524.29 115.82
  Q 497.90 120.31 476.02 136.25
  Q 469.85 140.73 465.08 144.66
  A 0.70 0.69 55.7 0 0 464.92 145.55
  C 469.33 153.02 471.86 162.06 465.39 169.47
  C 457.44 178.58 445.63 180.72 433.92 177.74
  C 426.41 175.82 417.62 172.86 410.59 171.71
  Q 374.11 165.74 340.79 180.31
  Q 316.45 190.96 298.00 211.59
  Q 292.99 217.20 289.47 223.17
  C 283.48 233.31 277.53 243.95 274.11 255.65
  Q 267.51 278.18 269.14 302.35
  C 270.67 325.03 279.35 349.02 295.11 365.39
  Q 308.27 379.06 327.29 387.68
  C 333.54 390.52 339.13 395.80 340.51 403.10
  Q 342.05 411.22 337.89 417.83
  C 334.42 423.33 327.90 427.74 321.77 428.79
  C 312.81 430.34 304.78 428.89 295.98 425.33
  Q 264.92 412.76 244.77 385.21
  C 230.93 366.27 221.31 343.04 219.35 319.33
  A 0.52 0.51 80.9 0 0 218.72 318.87
  Q 217.68 319.14 216.70 319.69
  C 209.48 323.82 202.83 328.36 197.38 334.05
  C 193.62 337.97 189.33 341.87 186.08 346.04
  Q 172.72 363.14 169.98 385.29
  C 168.21 399.56 173.20 415.26 182.17 426.61
  C 189.26 435.58 198.40 443.09 209.25 448.25
  Q 219.02 452.90 223.25 454.02
  Q 238.95 458.18 240.57 458.67
  C 249.05 461.23 257.48 466.13 259.44 475.16
  Q 261.34 483.92 256.51 492.04
  C 251.28 500.84 241.55 504.89 231.25 504.22
  C 217.99 503.36 205.96 500.65 193.27 494.95
  Q 183.10 490.39 177.41 487.42
  Q 171.52 484.35 169.44 483.38
  A 3.18 3.18 0.0 0 0 165.68 484.22
  C 152.65 499.61 149.04 523.27 151.68 542.61
  C 154.65 564.42 161.73 584.23 175.41 601.00
  C 193.10 622.70 218.19 639.14 245.39 645.87
  Q 263.69 650.40 280.02 651.05
  C 310.79 652.29 342.65 641.25 365.80 621.04
  Q 382.19 606.72 388.47 600.91
  C 395.83 594.10 405.01 587.56 411.41 583.43
  Q 419.50 578.21 428.48 574.57
  C 448.19 566.57 469.20 562.38 489.71 570.78
  C 495.97 573.34 501.59 576.68 504.85 582.51
  C 509.96 591.60 507.10 602.55 499.23 609.13
  Q 491.97 615.20 481.93 615.00
  Q 461.40 614.59 445.65 623.73
  Q 435.61 629.56 428.81 635.32
  Q 421.87 641.19 410.43 652.18
  Q 395.53 666.49 374.34 679.58
  Q 364.23 685.83 355.28 689.51
  C 345.77 693.41 334.32 697.51 323.50 699.88
  Q 295.57 705.99 266.74 702.42
  A 0.59 0.59 0.0 0 0 266.11 703.21
  Q 266.97 705.58 268.37 709.72
  Q 276.85 734.89 301.59 745.73
  Q 335.03 760.38 372.02 758.30
  Q 416.17 755.82 450.19 727.42
  C 452.51 725.49 456.44 722.31 459.27 719.51
  Q 483.41 695.57 486.18 692.93
  Q 501.08 678.68 510.33 670.84
  C 526.74 656.92 546.27 643.83 566.64 635.10
  Q 584.65 627.39 599.27 623.83
  Q 628.48 616.71 659.23 618.82
  Q 688.20 620.81 719.60 631.19
  Q 735.00 636.29 763.77 646.50
  C 782.88 653.29 805.95 656.71 824.67 647.29
  C 831.93 643.64 838.19 639.38 842.25 632.77
  C 847.24 624.63 850.29 616.28 849.39 606.59
  C 847.99 591.61 837.80 578.94 825.36 572.01
  C 806.39 561.43 785.29 560.49 763.74 561.99
  C 743.37 563.41 721.08 566.79 700.56 569.29
  C 675.30 572.37 652.08 574.79 629.76 572.94
  C 605.16 570.89 583.28 564.89 561.30 554.94
  Q 555.40 552.28 553.36 551.13
  Q 547.15 547.63 545.64 546.92
  C 529.70 539.44 512.38 526.41 499.34 517.44
  C 486.76 508.78 472.15 500.80 455.72 495.58
  C 444.52 492.02 433.61 491.60 422.17 492.63
  Q 417.01 493.10 411.83 494.83
  C 399.26 499.02 387.31 505.57 378.91 515.17
  Q 371.57 523.56 365.55 534.29
  C 360.78 542.81 354.92 554.09 347.65 562.32
  Q 338.98 572.13 332.50 576.96
  Q 314.75 590.18 293.63 593.15
  C 277.09 595.48 262.09 594.95 247.04 587.43
  C 239.22 583.51 234.46 578.25 233.39 569.31
  C 232.04 558.09 243.08 545.95 254.52 546.09
  Q 265.93 546.24 271.73 546.18
  Q 287.85 546.00 300.45 535.38
  Q 308.81 528.33 312.83 521.02
  Q 314.86 517.33 321.50 505.02
  Q 324.26 499.89 334.47 486.21
  C 349.15 466.52 373.07 450.77 396.52 444.24
  C 433.22 434.03 473.51 441.85 506.73 460.51
  C 513.07 464.07 524.30 470.70 532.58 476.47
  Q 545.23 485.29 556.95 492.79
  C 582.64 509.22 611.72 521.22 642.25 521.68
  C 665.67 522.04 684.85 519.28 710.05 515.89
  Q 727.80 513.50 747.00 511.49
  C 763.32 509.79 782.72 508.78 799.62 511.24
  Q 815.71 513.58 828.17 517.28
  C 847.82 523.12 867.71 534.71 880.83 550.62
  Q 891.17 563.14 896.99 578.90
  C 905.23 601.19 903.48 623.68 894.88 645.44
  C 889.37 659.40 880.15 670.15 868.85 679.94
  C 851.61 694.87 827.98 702.99 805.65 704.63
  C 789.88 705.79 772.68 703.11 757.65 698.57
  Q 741.76 693.77 722.62 687.13
  Q 698.61 678.81 687.86 676.60
  Q 666.03 672.12 648.52 671.81
  Q 626.99 671.44 604.69 678.23
  Q 598.30 680.18 588.80 684.61
  Q 576.55 690.32 573.45 692.24
  Q 549.59 706.95 529.55 726.07
  C 520.41 734.79 510.40 745.17 500.05 754.69
  Q 491.97 762.12 488.59 765.06
  Q 481.15 771.51 462.95 783.93
  Q 454.55 789.66 441.01 795.94
  Q 430.45 800.85 417.52 804.47
  Q 371.90 817.26 324.92 808.35
  C 310.91 805.69 299.58 803.37 288.32 797.47
  A 0.33 0.33 0.0 0 0 287.84 797.79"
/>
<path stroke="#808080" vector-effect="non-scaling-stroke" d="
  M 557.53 424.15
  C 560.42 421.97 562.48 418.61 563.91 415.42
  Q 573.64 393.80 571.91 370.12
  C 571.34 362.37 569.25 354.90 566.89 348.10
  Q 562.50 335.45 553.73 324.99
  Q 546.38 316.22 539.56 310.18
  Q 531.24 302.83 527.68 298.59
  Q 521.87 291.66 520.73 288.97
  Q 511.88 268.09 521.03 247.34
  C 525.49 237.23 530.31 231.20 537.29 221.79
  Q 540.09 218.01 541.99 213.73
  C 546.76 203.03 541.25 191.19 530.53 186.87
  Q 519.62 182.48 509.66 189.70
  Q 498.85 197.54 487.62 210.87
  Q 482.33 217.13 479.11 223.33
  C 475.26 230.71 470.42 240.47 468.35 249.09
  Q 463.71 268.45 466.90 288.19
  C 469.52 304.42 477.62 318.58 489.19 329.58
  C 494.83 334.95 506.96 344.68 514.31 354.55
  C 521.62 364.37 524.53 378.06 523.16 390.25
  C 522.68 394.54 520.84 400.57 520.82 404.73
  Q 520.73 418.05 529.59 424.61
  C 537.70 430.60 549.53 430.19 557.53 424.15"
/>
<path stroke="#808080" vector-effect="non-scaling-stroke" d="
  M 383.21 232.61
  Q 374.20 228.66 365.84 232.78
  C 360.12 235.59 353.55 242.51 350.79 248.04
  Q 345.37 258.88 342.98 272.75
  C 337.58 304.12 348.83 338.33 374.06 358.44
  Q 385.94 367.91 392.35 371.53
  Q 407.64 380.14 425.07 384.23
  C 432.68 386.01 438.78 385.89 445.83 382.37
  C 456.49 377.04 460.90 366.35 456.79 355.39
  C 454.10 348.20 447.19 343.54 440.23 340.52
  Q 432.41 337.13 423.10 332.73
  Q 419.47 331.01 415.88 328.66
  Q 409.78 324.66 409.02 324.00
  Q 393.59 310.48 391.18 289.72
  C 390.07 280.15 391.61 270.31 393.83 261.20
  C 395.85 252.90 396.30 246.78 392.00 239.94
  Q 388.99 235.15 383.21 232.61"
/>
<path stroke="#808080" vector-effect="non-scaling-stroke" d="
  M 855.93 407.48
  Q 852.90 408.41 844.66 410.95
  Q 831.08 415.12 818.00 423.72
  Q 809.44 429.34 800.75 438.98
  Q 795.70 444.58 795.56 451.80
  Q 795.30 465.74 806.60 472.28
  C 812.45 475.66 818.52 475.39 824.48 472.92
  Q 831.89 469.84 844.95 463.77
  C 855.07 459.06 866.66 458.27 878.19 459.97
  Q 891.53 461.94 902.66 469.77
  C 911.55 476.03 919.64 486.31 918.31 497.51
  Q 918.10 499.32 916.61 505.25
  C 915.34 510.31 915.43 513.40 917.55 517.98
  C 921.89 527.35 930.69 531.84 939.88 534.66
  Q 957.18 539.95 976.52 542.20
  Q 1006.43 545.67 1035.17 532.83
  Q 1044.75 528.55 1055.75 518.72
  C 1067.82 507.93 1077.67 493.75 1079.73 478.02
  C 1081.08 467.72 1075.76 459.06 1065.78 456.08
  C 1055.97 453.16 1046.87 456.80 1040.37 464.62
  Q 1030.89 476.01 1028.73 477.96
  C 1015.60 489.84 998.09 496.33 980.41 493.99
  Q 972.71 492.98 965.87 491.46
  A 0.85 0.84 -86.4 0 1 965.21 490.70
  Q 963.28 462.47 945.37 442.22
  C 937.56 433.38 928.42 425.97 917.31 420.46
  Q 912.56 418.10 908.18 415.57
  A 0.99 0.97 13.1 0 1 907.69 414.80
  C 907.08 406.81 907.03 399.20 909.67 391.20
  C 913.27 380.24 918.28 371.39 926.56 362.82
  C 935.86 353.20 941.40 349.54 955.12 338.88
  C 963.23 332.58 970.76 323.00 973.07 313.58
  C 976.59 299.31 964.50 285.16 949.47 286.47
  C 941.36 287.18 934.30 294.47 927.02 299.16
  Q 913.23 308.04 905.78 313.51
  Q 883.19 330.10 869.04 355.27
  Q 856.25 378.02 856.45 406.78
  A 0.74 0.73 -8.6 0 1 855.93 407.48"
/>
</g>
<path fill="#ffffff" d="
  M 1280.00 0.00
  L 1280.00 1280.00
  L 0.00 1280.00
  L 0.00 0.00
  L 1280.00 0.00
  Z
  M 1054.30 658.88
  Q 1055.99 658.14 1059.33 657.25
  Q 1090.97 648.74 1117.07 627.82
  C 1124.61 621.78 1132.54 613.66 1138.55 606.81
  C 1147.36 596.74 1154.77 584.64 1161.44 572.24
  C 1176.80 543.66 1183.76 510.50 1184.31 477.02
  Q 1184.84 444.61 1178.77 415.30
  C 1176.56 404.64 1173.76 396.51 1169.53 383.98
  Q 1167.80 378.85 1164.51 371.98
  Q 1154.35 350.71 1140.50 332.48
  Q 1136.08 326.68 1127.93 319.25
  Q 1118.31 310.49 1112.82 306.16
  Q 1101.55 297.28 1088.90 291.58
  A 2.14 2.13 -77.2 0 1 1087.65 289.59
  Q 1087.99 273.83 1084.62 260.38
  Q 1082.66 252.56 1078.78 241.26
  Q 1075.71 232.34 1070.52 223.04
  Q 1059.39 203.10 1047.34 189.95
  Q 1031.12 172.25 1016.11 161.98
  Q 983.63 139.76 940.97 133.29
  Q 922.03 130.41 902.00 132.09
  Q 896.31 132.57 888.30 133.35
  A 1.28 1.28 0.0 0 1 887.05 132.68
  Q 884.09 127.18 879.51 121.75
  C 853.26 90.65 815.23 71.46 775.32 64.90
  Q 755.16 61.58 737.76 62.92
  Q 725.28 63.88 711.45 66.62
  C 686.06 71.66 663.29 84.66 644.80 102.90
  A 0.86 0.86 0.0 0 1 643.58 102.90
  C 626.86 86.38 607.65 74.48 584.74 68.25
  Q 549.26 58.60 512.72 65.45
  C 486.67 70.33 460.90 80.52 439.60 96.48
  Q 436.59 98.74 435.00 100.18
  C 430.88 103.91 427.36 106.47 424.06 110.08
  Q 421.59 112.79 415.65 118.60
  A 3.38 3.37 27.1 0 1 412.79 119.52
  Q 383.20 115.10 354.52 121.56
  Q 331.25 126.80 316.39 133.42
  Q 269.82 154.18 241.07 198.32
  Q 236.15 205.88 231.60 215.99
  Q 226.25 227.87 224.09 234.57
  Q 220.49 245.78 218.98 258.65
  A 2.10 2.08 -10.4 0 1 217.86 260.26
  C 215.85 261.28 213.32 262.54 211.21 263.37
  Q 177.24 276.71 153.70 303.22
  C 134.13 325.26 121.93 350.94 118.24 380.28
  Q 115.41 402.89 121.80 423.93
  Q 124.14 431.66 126.90 438.51
  A 0.90 0.90 0.0 0 1 126.82 439.33
  Q 116.35 455.42 112.76 462.76
  Q 106.13 476.31 101.54 495.28
  Q 97.90 510.36 98.25 529.48
  Q 98.71 555.44 104.00 575.27
  Q 107.83 589.60 117.39 609.53
  C 121.53 618.15 128.31 626.83 133.93 634.09
  C 142.12 644.67 152.51 653.83 163.01 662.42
  A 4.59 4.57 17.1 0 1 164.66 665.52
  C 167.64 697.80 183.33 726.71 207.18 748.82
  Q 212.44 753.70 221.38 760.77
  C 223.96 762.80 226.34 765.64 228.42 767.24
  A 2.67 2.65 -80.7 0 1 229.34 768.53
  Q 230.57 772.21 230.84 774.48
  Q 233.94 799.63 232.19 826.98
  Q 230.09 859.70 222.87 893.33
  Q 215.96 925.52 207.60 952.37
  C 198.84 980.48 191.64 1002.97 185.72 1028.73
  Q 182.50 1042.77 180.88 1058.31
  Q 177.63 1089.54 186.02 1119.39
  C 188.09 1126.73 192.26 1135.88 195.02 1141.72
  C 198.98 1150.06 203.99 1157.75 210.21 1164.80
  Q 235.90 1193.94 271.81 1206.17
  C 319.31 1222.36 371.15 1221.57 419.23 1208.41
  Q 442.55 1202.02 460.69 1194.65
  Q 483.18 1185.51 486.80 1184.10
  Q 500.56 1178.70 521.45 1172.46
  Q 546.31 1165.03 570.03 1163.56
  C 594.86 1162.02 619.62 1163.34 644.50 1168.79
  Q 670.26 1174.44 681.80 1177.97
  Q 706.44 1185.51 748.97 1200.59
  Q 763.15 1205.62 782.03 1210.53
  Q 828.82 1222.71 877.25 1221.63
  Q 904.86 1221.01 929.44 1215.88
  Q 939.52 1213.78 961.50 1206.86
  C 971.56 1203.70 979.39 1200.09 987.54 1196.29
  Q 992.64 1193.90 996.82 1192.91
  A 5.11 5.08 50.0 0 1 1000.03 1193.20
  Q 1005.90 1195.74 1015.59 1200.12
  Q 1031.09 1207.13 1049.03 1209.20
  C 1073.86 1212.07 1101.11 1210.01 1124.20 1202.41
  Q 1140.33 1197.11 1154.34 1187.49
  C 1163.81 1180.99 1170.21 1173.73 1175.86 1164.35
  C 1184.26 1150.42 1185.05 1130.45 1176.14 1116.79
  C 1168.78 1105.51 1155.72 1098.31 1142.45 1097.35
  Q 1131.85 1096.58 1120.31 1099.34
  C 1111.81 1101.38 1102.46 1104.74 1094.01 1105.89
  Q 1083.18 1107.37 1071.87 1105.90
  C 1057.28 1104.01 1042.72 1096.52 1029.02 1093.96
  Q 1024.82 1093.18 1014.35 1092.76
  C 1004.61 1092.37 992.67 1093.36 982.75 1092.56
  Q 969.53 1091.49 958.22 1087.57
  C 950.53 1084.90 943.40 1081.87 938.17 1076.22
  Q 936.87 1074.81 936.35 1073.59
  A 1.03 1.02 -8.9 0 1 937.39 1072.17
  Q 953.26 1073.65 965.21 1074.45
  C 990.89 1076.15 1016.06 1071.83 1040.01 1079.26
  Q 1051.79 1082.91 1064.68 1088.76
  Q 1073.18 1092.63 1081.98 1092.98
  C 1085.14 1093.10 1086.65 1092.36 1088.84 1090.27
  C 1092.69 1086.60 1088.36 1079.04 1085.32 1076.18
  Q 1081.47 1072.56 1080.85 1072.14
  Q 1065.83 1062.10 1049.41 1057.34
  Q 1028.00 1051.12 1005.49 1049.52
  Q 975.28 1047.37 968.01 1046.77
  Q 939.54 1044.40 910.52 1036.48
  Q 894.47 1032.11 874.25 1023.41
  Q 856.26 1015.67 839.51 1006.51
  Q 809.80 990.25 785.73 974.20
  Q 771.98 965.03 746.89 948.24
  Q 714.25 926.41 683.57 901.67
  Q 667.82 888.97 653.76 874.84
  C 644.58 865.62 637.91 856.34 632.92 845.41
  C 628.13 834.93 627.51 818.35 634.28 808.30
  C 635.88 805.93 638.07 801.90 640.82 799.18
  Q 658.24 781.93 682.96 781.78
  Q 696.75 781.69 711.01 786.47
  Q 727.62 792.03 738.29 796.97
  C 748.85 801.86 760.85 806.39 772.32 811.56
  Q 778.99 814.57 784.09 816.40
  Q 806.01 824.26 821.34 828.59
  Q 855.43 838.23 891.53 837.02
  C 912.96 836.31 934.86 831.05 954.74 823.02
  Q 988.77 809.26 1014.43 783.46
  C 1019.12 778.75 1024.74 771.27 1027.57 767.60
  Q 1050.02 738.47 1055.24 701.75
  Q 1057.59 685.26 1056.17 670.89
  C 1055.81 667.24 1054.21 662.22 1053.87 659.64
  A 0.73 0.73 0.0 0 1 1054.30 658.88
  Z"
/>
<path fill="#000100" d="
  M 1053.87 659.64
  C 1054.21 662.22 1055.81 667.24 1056.17 670.89
  Q 1057.59 685.26 1055.24 701.75
  Q 1050.02 738.47 1027.57 767.60
  C 1024.74 771.27 1019.12 778.75 1014.43 783.46
  Q 988.77 809.26 954.74 823.02
  C 934.86 831.05 912.96 836.31 891.53 837.02
  Q 855.43 838.23 821.34 828.59
  Q 806.01 824.26 784.09 816.40
  Q 778.99 814.57 772.32 811.56
  C 760.85 806.39 748.85 801.86 738.29 796.97
  Q 727.62 792.03 711.01 786.47
  Q 696.75 781.69 682.96 781.78
  Q 658.24 781.93 640.82 799.18
  C 638.07 801.90 635.88 805.93 634.28 808.30
  C 627.51 818.35 628.13 834.93 632.92 845.41
  C 637.91 856.34 644.58 865.62 653.76 874.84
  Q 667.82 888.97 683.57 901.67
  Q 714.25 926.41 746.89 948.24
  Q 771.98 965.03 785.73 974.20
  Q 809.80 990.25 839.51 1006.51
  Q 856.26 1015.67 874.25 1023.41
  Q 894.47 1032.11 910.52 1036.48
  Q 939.54 1044.40 968.01 1046.77
  Q 975.28 1047.37 1005.49 1049.52
  Q 1028.00 1051.12 1049.41 1057.34
  Q 1065.83 1062.10 1080.85 1072.14
  Q 1081.47 1072.56 1085.32 1076.18
  C 1088.36 1079.04 1092.69 1086.60 1088.84 1090.27
  C 1086.65 1092.36 1085.14 1093.10 1081.98 1092.98
  Q 1073.18 1092.63 1064.68 1088.76
  Q 1051.79 1082.91 1040.01 1079.26
  C 1016.06 1071.83 990.89 1076.15 965.21 1074.45
  Q 953.26 1073.65 937.39 1072.17
  A 1.03 1.02 -8.9 0 0 936.35 1073.59
  Q 936.87 1074.81 938.17 1076.22
  C 943.40 1081.87 950.53 1084.90 958.22 1087.57
  Q 969.53 1091.49 982.75 1092.56
  C 992.67 1093.36 1004.61 1092.37 1014.35 1092.76
  Q 1024.82 1093.18 1029.02 1093.96
  C 1042.72 1096.52 1057.28 1104.01 1071.87 1105.90
  Q 1083.18 1107.37 1094.01 1105.89
  C 1102.46 1104.74 1111.81 1101.38 1120.31 1099.34
  Q 1131.85 1096.58 1142.45 1097.35
  C 1155.72 1098.31 1168.78 1105.51 1176.14 1116.79
  C 1185.05 1130.45 1184.26 1150.42 1175.86 1164.35
  C 1170.21 1173.73 1163.81 1180.99 1154.34 1187.49
  Q 1140.33 1197.11 1124.20 1202.41
  C 1101.11 1210.01 1073.86 1212.07 1049.03 1209.20
  Q 1031.09 1207.13 1015.59 1200.12
  Q 1005.90 1195.74 1000.03 1193.20
  A 5.11 5.08 50.0 0 0 996.82 1192.91
  Q 992.64 1193.90 987.54 1196.29
  C 979.39 1200.09 971.56 1203.70 961.50 1206.86
  Q 939.52 1213.78 929.44 1215.88
  Q 904.86 1221.01 877.25 1221.63
  Q 828.82 1222.71 782.03 1210.53
  Q 763.15 1205.62 748.97 1200.59
  Q 706.44 1185.51 681.80 1177.97
  Q 670.26 1174.44 644.50 1168.79
  C 619.62 1163.34 594.86 1162.02 570.03 1163.56
  Q 546.31 1165.03 521.45 1172.46
  Q 500.56 1178.70 486.80 1184.10
  Q 483.18 1185.51 460.69 1194.65
  Q 442.55 1202.02 419.23 1208.41
  C 371.15 1221.57 319.31 1222.36 271.81 1206.17
  Q 235.90 1193.94 210.21 1164.80
  C 203.99 1157.75 198.98 1150.06 195.02 1141.72
  C 192.26 1135.88 188.09 1126.73 186.02 1119.39
  Q 177.63 1089.54 180.88 1058.31
  Q 182.50 1042.77 185.72 1028.73
  C 191.64 1002.97 198.84 980.48 207.60 952.37
  Q 215.96 925.52 222.87 893.33
  Q 230.09 859.70 232.19 826.98
  Q 233.94 799.63 230.84 774.48
  Q 230.57 772.21 229.34 768.53
  A 2.67 2.65 -80.7 0 0 228.42 767.24
  C 226.34 765.64 223.96 762.80 221.38 760.77
  Q 212.44 753.70 207.18 748.82
  C 183.33 726.71 167.64 697.80 164.66 665.52
  A 4.59 4.57 17.1 0 0 163.01 662.42
  C 152.51 653.83 142.12 644.67 133.93 634.09
  C 128.31 626.83 121.53 618.15 117.39 609.53
  Q 107.83 589.60 104.00 575.27
  Q 98.71 555.44 98.25 529.48
  Q 97.90 510.36 101.54 495.28
  Q 106.13 476.31 112.76 462.76
  Q 116.35 455.42 126.82 439.33
  A 0.90 0.90 0.0 0 0 126.90 438.51
  Q 124.14 431.66 121.80 423.93
  Q 115.41 402.89 118.24 380.28
  C 121.93 350.94 134.13 325.26 153.70 303.22
  Q 177.24 276.71 211.21 263.37
  C 213.32 262.54 215.85 261.28 217.86 260.26
  A 2.10 2.08 -10.4 0 0 218.98 258.65
  Q 220.49 245.78 224.09 234.57
  Q 226.25 227.87 231.60 215.99
  Q 236.15 205.88 241.07 198.32
  Q 269.82 154.18 316.39 133.42
  Q 331.25 126.80 354.52 121.56
  Q 383.20 115.10 412.79 119.52
  A 3.38 3.37 27.1 0 0 415.65 118.60
  Q 421.59 112.79 424.06 110.08
  C 427.36 106.47 430.88 103.91 435.00 100.18
  Q 436.59 98.74 439.60 96.48
  C 460.90 80.52 486.67 70.33 512.72 65.45
  Q 549.26 58.60 584.74 68.25
  C 607.65 74.48 626.86 86.38 643.58 102.90
  A 0.86 0.86 0.0 0 0 644.80 102.90
  C 663.29 84.66 686.06 71.66 711.45 66.62
  Q 725.28 63.88 737.76 62.92
  Q 755.16 61.58 775.32 64.90
  C 815.23 71.46 853.26 90.65 879.51 121.75
  Q 884.09 127.18 887.05 132.68
  A 1.28 1.28 0.0 0 0 888.30 133.35
  Q 896.31 132.57 902.00 132.09
  Q 922.03 130.41 940.97 133.29
  Q 983.63 139.76 1016.11 161.98
  Q 1031.12 172.25 1047.34 189.95
  Q 1059.39 203.10 1070.52 223.04
  Q 1075.71 232.34 1078.78 241.26
  Q 1082.66 252.56 1084.62 260.38
  Q 1087.99 273.83 1087.65 289.59
  A 2.14 2.13 -77.2 0 0 1088.90 291.58
  Q 1101.55 297.28 1112.82 306.16
  Q 1118.31 310.49 1127.93 319.25
  Q 1136.08 326.68 1140.50 332.48
  Q 1154.35 350.71 1164.51 371.98
  Q 1167.80 378.85 1169.53 383.98
  C 1173.76 396.51 1176.56 404.64 1178.77 415.30
  Q 1184.84 444.61 1184.31 477.02
  C 1183.76 510.50 1176.80 543.66 1161.44 572.24
  C 1154.77 584.64 1147.36 596.74 1138.55 606.81
  C 1132.54 613.66 1124.61 621.78 1117.07 627.82
  Q 1090.97 648.74 1059.33 657.25
  Q 1055.99 658.14 1054.30 658.88
  A 0.73 0.73 0.0 0 0 1053.87 659.64
  Z
  M 287.84 797.79
  C 287.94 799.34 288.37 801.49 288.42 802.76
  Q 288.83 815.39 289.26 836.75
  Q 289.60 853.20 294.87 868.63
  Q 296.74 874.11 300.66 881.33
  Q 322.16 921.04 363.90 933.59
  C 390.07 941.46 421.28 938.19 445.47 925.49
  Q 456.27 919.82 464.20 914.22
  Q 481.73 901.86 496.00 885.01
  Q 505.65 873.63 509.75 867.48
  Q 521.54 849.80 534.20 824.18
  Q 542.76 806.87 556.37 789.12
  Q 569.91 771.45 585.14 759.31
  Q 608.61 740.60 636.66 732.76
  Q 650.27 728.95 662.49 728.15
  C 689.87 726.37 716.74 732.33 742.93 742.06
  Q 760.80 748.69 763.06 749.69
  Q 786.59 760.05 812.40 769.87
  C 829.91 776.53 845.59 780.68 862.75 783.00
  Q 894.83 787.34 925.55 778.05
  C 935.66 774.99 949.13 768.60 959.11 761.19
  Q 967.52 754.94 971.36 751.38
  C 989.31 734.73 1002.15 711.54 1003.36 686.78
  Q 1003.83 677.27 1000.75 667.47
  Q 999.01 661.94 993.48 660.74
  C 986.80 659.28 975.82 658.44 966.75 656.55
  C 957.70 654.66 949.48 651.11 944.85 643.14
  C 938.60 632.41 940.91 620.43 951.10 613.00
  Q 960.41 606.21 973.26 607.48
  Q 981.77 608.32 989.95 609.12
  C 1000.33 610.14 1009.46 610.34 1018.26 610.07
  C 1044.38 609.29 1069.98 599.86 1089.17 582.42
  Q 1108.07 565.24 1118.32 541.84
  Q 1124.51 527.72 1127.03 515.55
  Q 1133.54 484.17 1130.97 452.07
  C 1129.36 431.93 1126.05 413.89 1118.69 396.06
  Q 1108.77 372.02 1088.70 353.81
  Q 1085.28 350.71 1081.09 347.86
  A 0.42 0.42 0.0 0 0 1080.46 348.08
  Q 1073.02 370.25 1058.38 389.36
  C 1052.38 397.19 1041.39 404.48 1031.31 401.24
  C 1015.90 396.27 1007.91 380.57 1015.96 365.64
  Q 1019.59 358.92 1023.30 352.09
  Q 1036.43 327.88 1036.75 301.35
  C 1037.20 262.84 1017.80 224.82 984.74 203.80
  Q 977.55 199.23 975.04 197.98
  Q 968.02 194.49 955.25 190.06
  C 939.67 184.66 924.76 183.34 908.80 184.54
  A 0.47 0.46 -8.9 0 0 908.38 185.11
  Q 919.49 229.15 892.40 264.37
  Q 885.76 273.01 878.18 279.59
  C 869.38 287.22 855.95 290.85 846.24 282.38
  C 838.63 275.76 836.02 263.48 842.02 254.76
  C 852.02 240.22 860.99 229.35 860.34 211.70
  C 859.32 184.22 846.36 160.16 826.17 142.31
  C 810.10 128.10 787.25 119.07 766.28 115.54
  C 738.86 110.92 708.55 117.37 687.90 136.64
  Q 671.75 151.69 670.17 173.51
  Q 669.91 177.04 669.98 183.00
  Q 670.18 200.88 669.91 241.50
  C 669.75 266.75 670.26 291.07 669.93 318.83
  C 669.69 338.63 670.46 362.82 669.65 384.56
  C 669.13 398.46 664.79 411.72 672.99 424.26
  C 677.98 431.87 688.78 432.22 696.19 428.71
  C 710.63 421.87 721.86 407.78 730.12 393.90
  Q 734.02 387.35 736.50 379.72
  C 740.09 368.67 742.30 358.46 742.61 347.01
  Q 742.73 342.55 742.42 283.02
  Q 742.35 270.61 741.51 266.47
  Q 738.74 252.87 729.92 242.59
  Q 723.07 234.61 720.61 231.87
  C 708.51 218.42 716.68 201.03 732.44 196.45
  C 739.54 194.39 747.81 197.21 753.95 201.03
  Q 759.61 204.55 766.23 211.54
  Q 787.81 234.29 793.16 263.61
  C 794.20 269.35 794.87 276.60 794.84 281.52
  Q 794.69 310.94 794.87 333.27
  C 795.03 353.35 793.99 368.88 789.08 384.62
  C 781.48 408.97 768.43 434.16 749.58 451.75
  Q 742.05 458.77 739.96 460.43
  C 714.89 480.28 680.12 491.09 650.89 472.63
  C 628.73 458.63 617.56 435.84 617.73 409.51
  Q 617.89 383.35 617.80 320.76
  Q 617.68 243.73 618.08 177.50
  C 618.26 147.63 597.69 124.54 569.51 117.48
  Q 547.26 111.91 524.29 115.82
  Q 497.90 120.31 476.02 136.25
  Q 469.85 140.73 465.08 144.66
  A 0.70 0.69 55.7 0 0 464.92 145.55
  C 469.33 153.02 471.86 162.06 465.39 169.47
  C 457.44 178.58 445.63 180.72 433.92 177.74
  C 426.41 175.82 417.62 172.86 410.59 171.71
  Q 374.11 165.74 340.79 180.31
  Q 316.45 190.96 298.00 211.59
  Q 292.99 217.20 289.47 223.17
  C 283.48 233.31 277.53 243.95 274.11 255.65
  Q 267.51 278.18 269.14 302.35
  C 270.67 325.03 279.35 349.02 295.11 365.39
  Q 308.27 379.06 327.29 387.68
  C 333.54 390.52 339.13 395.80 340.51 403.10
  Q 342.05 411.22 337.89 417.83
  C 334.42 423.33 327.90 427.74 321.77 428.79
  C 312.81 430.34 304.78 428.89 295.98 425.33
  Q 264.92 412.76 244.77 385.21
  C 230.93 366.27 221.31 343.04 219.35 319.33
  A 0.52 0.51 80.9 0 0 218.72 318.87
  Q 217.68 319.14 216.70 319.69
  C 209.48 323.82 202.83 328.36 197.38 334.05
  C 193.62 337.97 189.33 341.87 186.08 346.04
  Q 172.72 363.14 169.98 385.29
  C 168.21 399.56 173.20 415.26 182.17 426.61
  C 189.26 435.58 198.40 443.09 209.25 448.25
  Q 219.02 452.90 223.25 454.02
  Q 238.95 458.18 240.57 458.67
  C 249.05 461.23 257.48 466.13 259.44 475.16
  Q 261.34 483.92 256.51 492.04
  C 251.28 500.84 241.55 504.89 231.25 504.22
  C 217.99 503.36 205.96 500.65 193.27 494.95
  Q 183.10 490.39 177.41 487.42
  Q 171.52 484.35 169.44 483.38
  A 3.18 3.18 0.0 0 0 165.68 484.22
  C 152.65 499.61 149.04 523.27 151.68 542.61
  C 154.65 564.42 161.73 584.23 175.41 601.00
  C 193.10 622.70 218.19 639.14 245.39 645.87
  Q 263.69 650.40 280.02 651.05
  C 310.79 652.29 342.65 641.25 365.80 621.04
  Q 382.19 606.72 388.47 600.91
  C 395.83 594.10 405.01 587.56 411.41 583.43
  Q 419.50 578.21 428.48 574.57
  C 448.19 566.57 469.20 562.38 489.71 570.78
  C 495.97 573.34 501.59 576.68 504.85 582.51
  C 509.96 591.60 507.10 602.55 499.23 609.13
  Q 491.97 615.20 481.93 615.00
  Q 461.40 614.59 445.65 623.73
  Q 435.61 629.56 428.81 635.32
  Q 421.87 641.19 410.43 652.18
  Q 395.53 666.49 374.34 679.58
  Q 364.23 685.83 355.28 689.51
  C 345.77 693.41 334.32 697.51 323.50 699.88
  Q 295.57 705.99 266.74 702.42
  A 0.59 0.59 0.0 0 0 266.11 703.21
  Q 266.97 705.58 268.37 709.72
  Q 276.85 734.89 301.59 745.73
  Q 335.03 760.38 372.02 758.30
  Q 416.17 755.82 450.19 727.42
  C 452.51 725.49 456.44 722.31 459.27 719.51
  Q 483.41 695.57 486.18 692.93
  Q 501.08 678.68 510.33 670.84
  C 526.74 656.92 546.27 643.83 566.64 635.10
  Q 584.65 627.39 599.27 623.83
  Q 628.48 616.71 659.23 618.82
  Q 688.20 620.81 719.60 631.19
  Q 735.00 636.29 763.77 646.50
  C 782.88 653.29 805.95 656.71 824.67 647.29
  C 831.93 643.64 838.19 639.38 842.25 632.77
  C 847.24 624.63 850.29 616.28 849.39 606.59
  C 847.99 591.61 837.80 578.94 825.36 572.01
  C 806.39 561.43 785.29 560.49 763.74 561.99
  C 743.37 563.41 721.08 566.79 700.56 569.29
  C 675.30 572.37 652.08 574.79 629.76 572.94
  C 605.16 570.89 583.28 564.89 561.30 554.94
  Q 555.40 552.28 553.36 551.13
  Q 547.15 547.63 545.64 546.92
  C 529.70 539.44 512.38 526.41 499.34 517.44
  C 486.76 508.78 472.15 500.80 455.72 495.58
  C 444.52 492.02 433.61 491.60 422.17 492.63
  Q 417.01 493.10 411.83 494.83
  C 399.26 499.02 387.31 505.57 378.91 515.17
  Q 371.57 523.56 365.55 534.29
  C 360.78 542.81 354.92 554.09 347.65 562.32
  Q 338.98 572.13 332.50 576.96
  Q 314.75 590.18 293.63 593.15
  C 277.09 595.48 262.09 594.95 247.04 587.43
  C 239.22 583.51 234.46 578.25 233.39 569.31
  C 232.04 558.09 243.08 545.95 254.52 546.09
  Q 265.93 546.24 271.73 546.18
  Q 287.85 546.00 300.45 535.38
  Q 308.81 528.33 312.83 521.02
  Q 314.86 517.33 321.50 505.02
  Q 324.26 499.89 334.47 486.21
  C 349.15 466.52 373.07 450.77 396.52 444.24
  C 433.22 434.03 473.51 441.85 506.73 460.51
  C 513.07 464.07 524.30 470.70 532.58 476.47
  Q 545.23 485.29 556.95 492.79
  C 582.64 509.22 611.72 521.22 642.25 521.68
  C 665.67 522.04 684.85 519.28 710.05 515.89
  Q 727.80 513.50 747.00 511.49
  C 763.32 509.79 782.72 508.78 799.62 511.24
  Q 815.71 513.58 828.17 517.28
  C 847.82 523.12 867.71 534.71 880.83 550.62
  Q 891.17 563.14 896.99 578.90
  C 905.23 601.19 903.48 623.68 894.88 645.44
  C 889.37 659.40 880.15 670.15 868.85 679.94
  C 851.61 694.87 827.98 702.99 805.65 704.63
  C 789.88 705.79 772.68 703.11 757.65 698.57
  Q 741.76 693.77 722.62 687.13
  Q 698.61 678.81 687.86 676.60
  Q 666.03 672.12 648.52 671.81
  Q 626.99 671.44 604.69 678.23
  Q 598.30 680.18 588.80 684.61
  Q 576.55 690.32 573.45 692.24
  Q 549.59 706.95 529.55 726.07
  C 520.41 734.79 510.40 745.17 500.05 754.69
  Q 491.97 762.12 488.59 765.06
  Q 481.15 771.51 462.95 783.93
  Q 454.55 789.66 441.01 795.94
  Q 430.45 800.85 417.52 804.47
  Q 371.90 817.26 324.92 808.35
  C 310.91 805.69 299.58 803.37 288.32 797.47
  A 0.33 0.33 0.0 0 0 287.84 797.79
  Z"
/>
<path fill="#ffffff" d="
  M 287.84 797.79
  A 0.33 0.33 0.0 0 1 288.32 797.47
  C 299.58 803.37 310.91 805.69 324.92 808.35
  Q 371.90 817.26 417.52 804.47
  Q 430.45 800.85 441.01 795.94
  Q 454.55 789.66 462.95 783.93
  Q 481.15 771.51 488.59 765.06
  Q 491.97 762.12 500.05 754.69
  C 510.40 745.17 520.41 734.79 529.55 726.07
  Q 549.59 706.95 573.45 692.24
  Q 576.55 690.32 588.80 684.61
  Q 598.30 680.18 604.69 678.23
  Q 626.99 671.44 648.52 671.81
  Q 666.03 672.12 687.86 676.60
  Q 698.61 678.81 722.62 687.13
  Q 741.76 693.77 757.65 698.57
  C 772.68 703.11 789.88 705.79 805.65 704.63
  C 827.98 702.99 851.61 694.87 868.85 679.94
  C 880.15 670.15 889.37 659.40 894.88 645.44
  C 903.48 623.68 905.23 601.19 896.99 578.90
  Q 891.17 563.14 880.83 550.62
  C 867.71 534.71 847.82 523.12 828.17 517.28
  Q 815.71 513.58 799.62 511.24
  C 782.72 508.78 763.32 509.79 747.00 511.49
  Q 727.80 513.50 710.05 515.89
  C 684.85 519.28 665.67 522.04 642.25 521.68
  C 611.72 521.22 582.64 509.22 556.95 492.79
  Q 545.23 485.29 532.58 476.47
  C 524.30 470.70 513.07 464.07 506.73 460.51
  C 473.51 441.85 433.22 434.03 396.52 444.24
  C 373.07 450.77 349.15 466.52 334.47 486.21
  Q 324.26 499.89 321.50 505.02
  Q 314.86 517.33 312.83 521.02
  Q 308.81 528.33 300.45 535.38
  Q 287.85 546.00 271.73 546.18
  Q 265.93 546.24 254.52 546.09
  C 243.08 545.95 232.04 558.09 233.39 569.31
  C 234.46 578.25 239.22 583.51 247.04 587.43
  C 262.09 594.95 277.09 595.48 293.63 593.15
  Q 314.75 590.18 332.50 576.96
  Q 338.98 572.13 347.65 562.32
  C 354.92 554.09 360.78 542.81 365.55 534.29
  Q 371.57 523.56 378.91 515.17
  C 387.31 505.57 399.26 499.02 411.83 494.83
  Q 417.01 493.10 422.17 492.63
  C 433.61 491.60 444.52 492.02 455.72 495.58
  C 472.15 500.80 486.76 508.78 499.34 517.44
  C 512.38 526.41 529.70 539.44 545.64 546.92
  Q 547.15 547.63 553.36 551.13
  Q 555.40 552.28 561.30 554.94
  C 583.28 564.89 605.16 570.89 629.76 572.94
  C 652.08 574.79 675.30 572.37 700.56 569.29
  C 721.08 566.79 743.37 563.41 763.74 561.99
  C 785.29 560.49 806.39 561.43 825.36 572.01
  C 837.80 578.94 847.99 591.61 849.39 606.59
  C 850.29 616.28 847.24 624.63 842.25 632.77
  C 838.19 639.38 831.93 643.64 824.67 647.29
  C 805.95 656.71 782.88 653.29 763.77 646.50
  Q 735.00 636.29 719.60 631.19
  Q 688.20 620.81 659.23 618.82
  Q 628.48 616.71 599.27 623.83
  Q 584.65 627.39 566.64 635.10
  C 546.27 643.83 526.74 656.92 510.33 670.84
  Q 501.08 678.68 486.18 692.93
  Q 483.41 695.57 459.27 719.51
  C 456.44 722.31 452.51 725.49 450.19 727.42
  Q 416.17 755.82 372.02 758.30
  Q 335.03 760.38 301.59 745.73
  Q 276.85 734.89 268.37 709.72
  Q 266.97 705.58 266.11 703.21
  A 0.59 0.59 0.0 0 1 266.74 702.42
  Q 295.57 705.99 323.50 699.88
  C 334.32 697.51 345.77 693.41 355.28 689.51
  Q 364.23 685.83 374.34 679.58
  Q 395.53 666.49 410.43 652.18
  Q 421.87 641.19 428.81 635.32
  Q 435.61 629.56 445.65 623.73
  Q 461.40 614.59 481.93 615.00
  Q 491.97 615.20 499.23 609.13
  C 507.10 602.55 509.96 591.60 504.85 582.51
  C 501.59 576.68 495.97 573.34 489.71 570.78
  C 469.20 562.38 448.19 566.57 428.48 574.57
  Q 419.50 578.21 411.41 583.43
  C 405.01 587.56 395.83 594.10 388.47 600.91
  Q 382.19 606.72 365.80 621.04
  C 342.65 641.25 310.79 652.29 280.02 651.05
  Q 263.69 650.40 245.39 645.87
  C 218.19 639.14 193.10 622.70 175.41 601.00
  C 161.73 584.23 154.65 564.42 151.68 542.61
  C 149.04 523.27 152.65 499.61 165.68 484.22
  A 3.18 3.18 0.0 0 1 169.44 483.38
  Q 171.52 484.35 177.41 487.42
  Q 183.10 490.39 193.27 494.95
  C 205.96 500.65 217.99 503.36 231.25 504.22
  C 241.55 504.89 251.28 500.84 256.51 492.04
  Q 261.34 483.92 259.44 475.16
  C 257.48 466.13 249.05 461.23 240.57 458.67
  Q 238.95 458.18 223.25 454.02
  Q 219.02 452.90 209.25 448.25
  C 198.40 443.09 189.26 435.58 182.17 426.61
  C 173.20 415.26 168.21 399.56 169.98 385.29
  Q 172.72 363.14 186.08 346.04
  C 189.33 341.87 193.62 337.97 197.38 334.05
  C 202.83 328.36 209.48 323.82 216.70 319.69
  Q 217.68 319.14 218.72 318.87
  A 0.52 0.51 80.9 0 1 219.35 319.33
  C 221.31 343.04 230.93 366.27 244.77 385.21
  Q 264.92 412.76 295.98 425.33
  C 304.78 428.89 312.81 430.34 321.77 428.79
  C 327.90 427.74 334.42 423.33 337.89 417.83
  Q 342.05 411.22 340.51 403.10
  C 339.13 395.80 333.54 390.52 327.29 387.68
  Q 308.27 379.06 295.11 365.39
  C 279.35 349.02 270.67 325.03 269.14 302.35
  Q 267.51 278.18 274.11 255.65
  C 277.53 243.95 283.48 233.31 289.47 223.17
  Q 292.99 217.20 298.00 211.59
  Q 316.45 190.96 340.79 180.31
  Q 374.11 165.74 410.59 171.71
  C 417.62 172.86 426.41 175.82 433.92 177.74
  C 445.63 180.72 457.44 178.58 465.39 169.47
  C 471.86 162.06 469.33 153.02 464.92 145.55
  A 0.70 0.69 55.7 0 1 465.08 144.66
  Q 469.85 140.73 476.02 136.25
  Q 497.90 120.31 524.29 115.82
  Q 547.26 111.91 569.51 117.48
  C 597.69 124.54 618.26 147.63 618.08 177.50
  Q 617.68 243.73 617.80 320.76
  Q 617.89 383.35 617.73 409.51
  C 617.56 435.84 628.73 458.63 650.89 472.63
  C 680.12 491.09 714.89 480.28 739.96 460.43
  Q 742.05 458.77 749.58 451.75
  C 768.43 434.16 781.48 408.97 789.08 384.62
  C 793.99 368.88 795.03 353.35 794.87 333.27
  Q 794.69 310.94 794.84 281.52
  C 794.87 276.60 794.20 269.35 793.16 263.61
  Q 787.81 234.29 766.23 211.54
  Q 759.61 204.55 753.95 201.03
  C 747.81 197.21 739.54 194.39 732.44 196.45
  C 716.68 201.03 708.51 218.42 720.61 231.87
  Q 723.07 234.61 729.92 242.59
  Q 738.74 252.87 741.51 266.47
  Q 742.35 270.61 742.42 283.02
  Q 742.73 342.55 742.61 347.01
  C 742.30 358.46 740.09 368.67 736.50 379.72
  Q 734.02 387.35 730.12 393.90
  C 721.86 407.78 710.63 421.87 696.19 428.71
  C 688.78 432.22 677.98 431.87 672.99 424.26
  C 664.79 411.72 669.13 398.46 669.65 384.56
  C 670.46 362.82 669.69 338.63 669.93 318.83
  C 670.26 291.07 669.75 266.75 669.91 241.50
  Q 670.18 200.88 669.98 183.00
  Q 669.91 177.04 670.17 173.51
  Q 671.75 151.69 687.90 136.64
  C 708.55 117.37 738.86 110.92 766.28 115.54
  C 787.25 119.07 810.10 128.10 826.17 142.31
  C 846.36 160.16 859.32 184.22 860.34 211.70
  C 860.99 229.35 852.02 240.22 842.02 254.76
  C 836.02 263.48 838.63 275.76 846.24 282.38
  C 855.95 290.85 869.38 287.22 878.18 279.59
  Q 885.76 273.01 892.40 264.37
  Q 919.49 229.15 908.38 185.11
  A 0.47 0.46 -8.9 0 1 908.80 184.54
  C 924.76 183.34 939.67 184.66 955.25 190.06
  Q 968.02 194.49 975.04 197.98
  Q 977.55 199.23 984.74 203.80
  C 1017.80 224.82 1037.20 262.84 1036.75 301.35
  Q 1036.43 327.88 1023.30 352.09
  Q 1019.59 358.92 1015.96 365.64
  C 1007.91 380.57 1015.90 396.27 1031.31 401.24
  C 1041.39 404.48 1052.38 397.19 1058.38 389.36
  Q 1073.02 370.25 1080.46 348.08
  A 0.42 0.42 0.0 0 1 1081.09 347.86
  Q 1085.28 350.71 1088.70 353.81
  Q 1108.77 372.02 1118.69 396.06
  C 1126.05 413.89 1129.36 431.93 1130.97 452.07
  Q 1133.54 484.17 1127.03 515.55
  Q 1124.51 527.72 1118.32 541.84
  Q 1108.07 565.24 1089.17 582.42
  C 1069.98 599.86 1044.38 609.29 1018.26 610.07
  C 1009.46 610.34 1000.33 610.14 989.95 609.12
  Q 981.77 608.32 973.26 607.48
  Q 960.41 606.21 951.10 613.00
  C 940.91 620.43 938.60 632.41 944.85 643.14
  C 949.48 651.11 957.70 654.66 966.75 656.55
  C 975.82 658.44 986.80 659.28 993.48 660.74
  Q 999.01 661.94 1000.75 667.47
  Q 1003.83 677.27 1003.36 686.78
  C 1002.15 711.54 989.31 734.73 971.36 751.38
  Q 967.52 754.94 959.11 761.19
  C 949.13 768.60 935.66 774.99 925.55 778.05
  Q 894.83 787.34 862.75 783.00
  C 845.59 780.68 829.91 776.53 812.40 769.87
  Q 786.59 760.05 763.06 749.69
  Q 760.80 748.69 742.93 742.06
  C 716.74 732.33 689.87 726.37 662.49 728.15
  Q 650.27 728.95 636.66 732.76
  Q 608.61 740.60 585.14 759.31
  Q 569.91 771.45 556.37 789.12
  Q 542.76 806.87 534.20 824.18
  Q 521.54 849.80 509.75 867.48
  Q 505.65 873.63 496.00 885.01
  Q 481.73 901.86 464.20 914.22
  Q 456.27 919.82 445.47 925.49
  C 421.28 938.19 390.07 941.46 363.90 933.59
  Q 322.16 921.04 300.66 881.33
  Q 296.74 874.11 294.87 868.63
  Q 289.60 853.20 289.26 836.75
  Q 288.83 815.39 288.42 802.76
  C 288.37 801.49 287.94 799.34 287.84 797.79
  Z
  M 557.53 424.15
  C 560.42 421.97 562.48 418.61 563.91 415.42
  Q 573.64 393.80 571.91 370.12
  C 571.34 362.37 569.25 354.90 566.89 348.10
  Q 562.50 335.45 553.73 324.99
  Q 546.38 316.22 539.56 310.18
  Q 531.24 302.83 527.68 298.59
  Q 521.87 291.66 520.73 288.97
  Q 511.88 268.09 521.03 247.34
  C 525.49 237.23 530.31 231.20 537.29 221.79
  Q 540.09 218.01 541.99 213.73
  C 546.76 203.03 541.25 191.19 530.53 186.87
  Q 519.62 182.48 509.66 189.70
  Q 498.85 197.54 487.62 210.87
  Q 482.33 217.13 479.11 223.33
  C 475.26 230.71 470.42 240.47 468.35 249.09
  Q 463.71 268.45 466.90 288.19
  C 469.52 304.42 477.62 318.58 489.19 329.58
  C 494.83 334.95 506.96 344.68 514.31 354.55
  C 521.62 364.37 524.53 378.06 523.16 390.25
  C 522.68 394.54 520.84 400.57 520.82 404.73
  Q 520.73 418.05 529.59 424.61
  C 537.70 430.60 549.53 430.19 557.53 424.15
  Z
  M 383.21 232.61
  Q 374.20 228.66 365.84 232.78
  C 360.12 235.59 353.55 242.51 350.79 248.04
  Q 345.37 258.88 342.98 272.75
  C 337.58 304.12 348.83 338.33 374.06 358.44
  Q 385.94 367.91 392.35 371.53
  Q 407.64 380.14 425.07 384.23
  C 432.68 386.01 438.78 385.89 445.83 382.37
  C 456.49 377.04 460.90 366.35 456.79 355.39
  C 454.10 348.20 447.19 343.54 440.23 340.52
  Q 432.41 337.13 423.10 332.73
  Q 419.47 331.01 415.88 328.66
  Q 409.78 324.66 409.02 324.00
  Q 393.59 310.48 391.18 289.72
  C 390.07 280.15 391.61 270.31 393.83 261.20
  C 395.85 252.90 396.30 246.78 392.00 239.94
  Q 388.99 235.15 383.21 232.61
  Z
  M 855.93 407.48
  Q 852.90 408.41 844.66 410.95
  Q 831.08 415.12 818.00 423.72
  Q 809.44 429.34 800.75 438.98
  Q 795.70 444.58 795.56 451.80
  Q 795.30 465.74 806.60 472.28
  C 812.45 475.66 818.52 475.39 824.48 472.92
  Q 831.89 469.84 844.95 463.77
  C 855.07 459.06 866.66 458.27 878.19 459.97
  Q 891.53 461.94 902.66 469.77
  C 911.55 476.03 919.64 486.31 918.31 497.51
  Q 918.10 499.32 916.61 505.25
  C 915.34 510.31 915.43 513.40 917.55 517.98
  C 921.89 527.35 930.69 531.84 939.88 534.66
  Q 957.18 539.95 976.52 542.20
  Q 1006.43 545.67 1035.17 532.83
  Q 1044.75 528.55 1055.75 518.72
  C 1067.82 507.93 1077.67 493.75 1079.73 478.02
  C 1081.08 467.72 1075.76 459.06 1065.78 456.08
  C 1055.97 453.16 1046.87 456.80 1040.37 464.62
  Q 1030.89 476.01 1028.73 477.96
  C 1015.60 489.84 998.09 496.33 980.41 493.99
  Q 972.71 492.98 965.87 491.46
  A 0.85 0.84 -86.4 0 1 965.21 490.70
  Q 963.28 462.47 945.37 442.22
  C 937.56 433.38 928.42 425.97 917.31 420.46
  Q 912.56 418.10 908.18 415.57
  A 0.99 0.97 13.1 0 1 907.69 414.80
  C 907.08 406.81 907.03 399.20 909.67 391.20
  C 913.27 380.24 918.28 371.39 926.56 362.82
  C 935.86 353.20 941.40 349.54 955.12 338.88
  C 963.23 332.58 970.76 323.00 973.07 313.58
  C 976.59 299.31 964.50 285.16 949.47 286.47
  C 941.36 287.18 934.30 294.47 927.02 299.16
  Q 913.23 308.04 905.78 313.51
  Q 883.19 330.10 869.04 355.27
  Q 856.25 378.02 856.45 406.78
  A 0.74 0.73 -8.6 0 1 855.93 407.48
  Z"
/>
<path fill="#000100" d="
  M 557.53 424.15
  C 549.53 430.19 537.70 430.60 529.59 424.61
  Q 520.73 418.05 520.82 404.73
  C 520.84 400.57 522.68 394.54 523.16 390.25
  C 524.53 378.06 521.62 364.37 514.31 354.55
  C 506.96 344.68 494.83 334.95 489.19 329.58
  C 477.62 318.58 469.52 304.42 466.90 288.19
  Q 463.71 268.45 468.35 249.09
  C 470.42 240.47 475.26 230.71 479.11 223.33
  Q 482.33 217.13 487.62 210.87
  Q 498.85 197.54 509.66 189.70
  Q 519.62 182.48 530.53 186.87
  C 541.25 191.19 546.76 203.03 541.99 213.73
  Q 540.09 218.01 537.29 221.79
  C 530.31 231.20 525.49 237.23 521.03 247.34
  Q 511.88 268.09 520.73 288.97
  Q 521.87 291.66 527.68 298.59
  Q 531.24 302.83 539.56 310.18
  Q 546.38 316.22 553.73 324.99
  Q 562.50 335.45 566.89 348.10
  C 569.25 354.90 571.34 362.37 571.91 370.12
  Q 573.64 393.80 563.91 415.42
  C 562.48 418.61 560.42 421.97 557.53 424.15
  Z"
/>
<path fill="#000100" d="
  M 392.00 239.94
  C 396.30 246.78 395.85 252.90 393.83 261.20
  C 391.61 270.31 390.07 280.15 391.18 289.72
  Q 393.59 310.48 409.02 324.00
  Q 409.78 324.66 415.88 328.66
  Q 419.47 331.01 423.10 332.73
  Q 432.41 337.13 440.23 340.52
  C 447.19 343.54 454.10 348.20 456.79 355.39
  C 460.90 366.35 456.49 377.04 445.83 382.37
  C 438.78 385.89 432.68 386.01 425.07 384.23
  Q 407.64 380.14 392.35 371.53
  Q 385.94 367.91 374.06 358.44
  C 348.83 338.33 337.58 304.12 342.98 272.75
  Q 345.37 258.88 350.79 248.04
  C 353.55 242.51 360.12 235.59 365.84 232.78
  Q 374.20 228.66 383.21 232.61
  Q 388.99 235.15 392.00 239.94
  Z"
/>
<path fill="#000100" d="
  M 856.45 406.78
  Q 856.25 378.02 869.04 355.27
  Q 883.19 330.10 905.78 313.51
  Q 913.23 308.04 927.02 299.16
  C 934.30 294.47 941.36 287.18 949.47 286.47
  C 964.50 285.16 976.59 299.31 973.07 313.58
  C 970.76 323.00 963.23 332.58 955.12 338.88
  C 941.40 349.54 935.86 353.20 926.56 362.82
  C 918.28 371.39 913.27 380.24 909.67 391.20
  C 907.03 399.20 907.08 406.81 907.69 414.80
  A 0.99 0.97 13.1 0 0 908.18 415.57
  Q 912.56 418.10 917.31 420.46
  C 928.42 425.97 937.56 433.38 945.37 442.22
  Q 963.28 462.47 965.21 490.70
  A 0.85 0.84 -86.4 0 0 965.87 491.46
  Q 972.71 492.98 980.41 493.99
  C 998.09 496.33 1015.60 489.84 1028.73 477.96
  Q 1030.89 476.01 1040.37 464.62
  C 1046.87 456.80 1055.97 453.16 1065.78 456.08
  C 1075.76 459.06 1081.08 467.72 1079.73 478.02
  C 1077.67 493.75 1067.82 507.93 1055.75 518.72
  Q 1044.75 528.55 1035.17 532.83
  Q 1006.43 545.67 976.52 542.20
  Q 957.18 539.95 939.88 534.66
  C 930.69 531.84 921.89 527.35 917.55 517.98
  C 915.43 513.40 915.34 510.31 916.61 505.25
  Q 918.10 499.32 918.31 497.51
  C 919.64 486.31 911.55 476.03 902.66 469.77
  Q 891.53 461.94 878.19 459.97
  C 866.66 458.27 855.07 459.06 844.95 463.77
  Q 831.89 469.84 824.48 472.92
  C 818.52 475.39 812.45 475.66 806.60 472.28
  Q 795.30 465.74 795.56 451.80
  Q 795.70 444.58 800.75 438.98
  Q 809.44 429.34 818.00 423.72
  Q 831.08 415.12 844.66 410.95
  Q 852.90 408.41 855.93 407.48
  A 0.74 0.73 -8.6 0 0 856.45 406.78
  Z"
/>
</svg>
